<svg width="15" height="15" viewBox="0 0 15 15" fill="none" xmlns="http://www.w3.org/2000/svg">
<g id="Bug">
<path id="Vector" fill-rule="evenodd" clip-rule="evenodd" d="M10.0223 0.0146861C10.0332 -0.000891719 10.0547 -0.00467756 10.0703 0.00623019L11.1353 0.75201C11.1509 0.762917 11.1547 0.784386 11.1438 0.799964L9.66138 2.91706C10.3821 3.1473 10.8731 3.39565 10.8731 3.39565C10.8731 3.39565 9.67293 5.46 7.63738 5.46C5.60183 5.46 4.15539 3.53598 4.15539 3.53598C4.15539 3.53598 4.66827 3.20867 5.42853 2.92795L3.80253 0.99018C3.79032 0.97561 3.79222 0.953892 3.80678 0.941669L4.8028 0.1059C4.81739 0.0936759 4.8391 0.0955758 4.85132 0.110144L6.9101 2.5637C7.08638 2.54376 7.26597 2.53262 7.44721 2.53262C7.70769 2.53262 7.96785 2.55242 8.22183 2.58603L10.0223 0.0146861ZM10.425 5.55776C10.9682 5.16981 11.7902 4.15723 11.7902 4.15723C11.7902 4.15723 13.8898 5.82103 13.8898 9.3489C13.8898 12.8767 10.2599 15 10.2599 15C10.2599 15 8.52567 13.2486 8.09992 11.0284C7.6742 8.80821 8.7297 6.34296 8.7297 6.34296C8.7297 6.34296 9.88179 5.94572 10.425 5.55776ZM4.57484 5.55776C4.03164 5.16981 3.20967 4.15723 3.20967 4.15723C3.20967 4.15723 1.11011 5.82103 1.11011 9.3489C1.11011 12.8767 4.73993 15 4.73993 15C4.73993 15 6.47419 13.2486 6.89993 11.0284C7.32565 8.80821 6.27016 6.34296 6.27016 6.34296C6.27016 6.34296 5.11807 5.94572 4.57484 5.55776Z" fill="white"/>
</g>
</svg>
