<svg width="15" height="15" viewBox="0 0 15 15" fill="none" xmlns="http://www.w3.org/2000/svg">
<g id="Dark" clip-path="url(#clip0_43_482)">
<path id="Vector" fill-rule="evenodd" clip-rule="evenodd" d="M6.73016 13.2671C7.01513 13.3107 7.30698 13.3333 7.60417 13.3333C10.7683 13.3333 13.3333 10.7683 13.3333 7.60418C13.3333 4.44003 10.7683 1.875 7.60417 1.875C7.39189 1.875 7.18227 1.88655 6.97599 1.90905C8.54557 3.09817 9.58332 5.15807 9.58332 7.5C9.58332 9.96211 8.43632 12.1125 6.73016 13.2671ZM7.49999 15C11.6421 15 15 11.6421 15 7.5C15 3.35786 11.6421 0 7.49999 0C3.35785 0 0 3.35786 0 7.5C0 11.6421 3.35785 15 7.49999 15Z" fill="white"/>
</g>
<defs>
<clipPath id="clip0_43_482">
<rect width="15" height="15" fill="white"/>
</clipPath>
</defs>
</svg>
