<svg width="15" height="15" viewBox="0 0 15 15" fill="none" xmlns="http://www.w3.org/2000/svg">
<g id="Dragon" clip-path="url(#clip0_43_502)">
<path id="Vector" fill-rule="evenodd" clip-rule="evenodd" d="M8.2276 7.46722C8.32926 7.40522 8.41551 7.27532 8.48506 7.13095C9.40044 7.50507 10.0437 8.38913 10.0437 9.42012C10.0437 10.7897 8.90846 11.9001 7.50807 11.9001C6.9332 11.9001 6.40302 11.7129 5.97772 11.3976C5.8382 11.3316 5.72342 11.2681 5.62949 11.2162C5.4838 11.1356 5.38826 11.0828 5.32844 11.0911C5.15356 11.1152 5.20434 11.2761 5.25048 11.4222C5.2818 11.5215 5.31101 11.614 5.2658 11.6522C5.21852 11.6921 5.06535 11.5461 4.88638 11.3754C4.64274 11.1432 4.3513 10.8653 4.21387 10.9487C4.10521 11.0147 4.2107 11.1938 4.33984 11.4129L4.34942 11.4292C4.40397 11.5218 4.4672 11.6162 4.52488 11.7022C4.64216 11.8772 4.73661 12.0181 4.68936 12.042C4.63223 12.0708 4.2342 11.8022 3.89878 11.4292C3.76932 11.2852 3.64393 11.1292 3.52738 10.9842V10.9842C3.27229 10.6668 3.05978 10.4024 2.94048 10.4337C2.79697 10.4714 2.90553 10.7674 3.06505 11.0522C3.13964 11.1855 3.22738 11.3211 3.30335 11.4386V11.4386C3.4215 11.6212 3.51118 11.7598 3.47866 11.7769C3.43478 11.7998 3.04861 11.4233 2.78633 10.9487C2.63054 10.6669 2.49973 10.3554 2.39383 10.1032C2.27898 9.82975 2.19343 9.62604 2.1371 9.60554C1.94138 9.53432 1.94138 9.93337 2.01988 10.5093C2.03012 10.5845 2.04537 10.6633 2.06414 10.7435C2.8254 13.2066 5.16391 15 7.93067 15C11.315 15 14.0584 12.3168 14.0584 9.0068C14.0584 5.85645 11.5732 3.27384 8.41563 3.03205C8.41961 2.88364 8.49707 2.58935 8.49707 2.58935C8.49707 2.58935 9.0545 1.24064 9.08397 0.952438C9.08591 0.933311 9.08822 0.912524 9.09071 0.890388C9.12543 0.578991 9.19003 0 8.69192 0C8.42591 0 8.30222 0.19789 8.16074 0.424216V0.424219C8.10643 0.511104 8.04947 0.602183 7.98086 0.687861C7.48668 1.30499 6.6557 2.07565 6.18452 2.48622C5.1886 3.35402 4.21149 4.06723 3.64161 4.48318L3.64158 4.48321C3.38239 4.67238 3.20746 4.80009 3.15332 4.85285C2.74533 5.25059 1.28247 7.88924 1.28247 7.88924C1.28247 7.88924 0.809404 8.7358 0.977553 8.90751C1.1457 9.07919 1.55119 9.03984 1.55119 9.03984C1.55119 9.03984 6.99868 7.79013 7.48639 7.69157C7.6177 7.66503 7.71039 7.64971 7.78155 7.63796C7.97477 7.60606 8.00945 7.60031 8.2276 7.46722ZM4.37603 5.86125C4.08361 6.13919 3.59866 6.80262 3.59866 6.80262C3.59866 6.80262 4.49995 6.85813 4.99633 6.38631C5.49273 5.91445 5.379 5.11034 5.379 5.11034C5.379 5.11034 4.66841 5.58331 4.37603 5.86125Z" fill="white"/>
</g>
<defs>
<clipPath id="clip0_43_502">
<rect width="15" height="15" fill="white"/>
</clipPath>
</defs>
</svg>
