<svg width="15" height="15" viewBox="0 0 15 15" fill="none" xmlns="http://www.w3.org/2000/svg">
<g id="Fairy" clip-path="url(#clip0_42137_223)">
<path id="Vector" fill-rule="evenodd" clip-rule="evenodd" d="M3.00965 11.8943L5.41565 11.1966L7.49374 14.9963C7.49647 15.0012 7.50353 15.0012 7.50623 14.9963L9.58432 11.1966L11.9903 11.8943C11.9957 11.8958 12.0007 11.8908 11.9991 11.8854L11.3014 9.52704L14.9963 7.50623C15.0012 7.50353 15.0012 7.49647 14.9963 7.49377L11.2709 5.45628L11.9991 2.99497C12.0007 2.98958 11.9957 2.98457 11.9903 2.98612L9.52789 3.70014L7.50623 0.00369704C7.50353 -0.00123226 7.49647 -0.0012324 7.49377 0.00369692L5.47211 3.70014L3.00965 2.98612C3.00426 2.98457 2.99925 2.98958 3.00086 2.99497L3.72906 5.45628L0.00369704 7.49377C-0.00123226 7.49647 -0.0012324 7.50353 0.00369692 7.50623L3.69859 9.52704L3.00086 11.8854C2.99925 11.8908 3.00426 11.8958 3.00965 11.8943ZM4.87669 7.52591L6.5812 8.45814L7.51343 10.1626C7.51613 10.1676 7.52322 10.1676 7.52591 10.1626L8.45814 8.45814L10.1626 7.52591C10.1676 7.52322 10.1676 7.51613 10.1626 7.51343L8.45814 6.5812L7.52591 4.87671C7.52322 4.87176 7.51613 4.87176 7.51343 4.87671L6.5812 6.5812L4.87669 7.51343C4.87176 7.51613 4.87176 7.52322 4.87669 7.52591Z" fill="white"/>
</g>
<defs>
<clipPath id="clip0_42137_223">
<rect width="15" height="15" fill="white"/>
</clipPath>
</defs>
</svg>
