<svg width="15" height="15" viewBox="0 0 15 15" fill="none" xmlns="http://www.w3.org/2000/svg">
<g id="Fighting" clip-path="url(#clip0_42137_821)">
<path id="Vector" fill-rule="evenodd" clip-rule="evenodd" d="M2.58692 1.24704C2.76845 0.530315 3.41776 0 4.19091 0C4.77084 0 5.2811 0.29838 5.57653 0.75H6.06031C6.36087 0.441551 6.78078 0.25 7.24546 0.25C7.92673 0.25 8.51185 0.661764 8.7655 1.25H9.17053C9.42433 1.09156 9.72421 0.999999 10.0454 0.999999C10.7267 0.999999 11.3118 1.41176 11.5655 2H12.6669C12.6763 2 12.6851 2.00254 12.6927 2.00696C12.743 2.00235 12.794 2 12.8454 2C13.7592 2 14.5 2.74076 14.5 3.65455V8.6158L14.5 8.625L14.5 8.6342V8.70566C14.5 8.73592 14.4992 8.76606 14.4975 8.79606C14.398 12.2378 11.3032 15 7.49999 15C3.634 15 0.5 12.1458 0.5 8.625C0.5 6.92552 1.23022 5.38134 2.42051 4.23853C2.41754 5.89535 2.44553 7.60822 2.57453 7.57884C2.91995 7.50009 2.65007 2.36834 2.58692 1.24704Z" fill="white"/>
</g>
<defs>
<clipPath id="clip0_42137_821">
<rect width="15" height="15" fill="white"/>
</clipPath>
</defs>
</svg>
