<svg width="15" height="15" viewBox="0 0 15 15" fill="none" xmlns="http://www.w3.org/2000/svg">
<g id="Fire">
<path id="Vector" fill-rule="evenodd" clip-rule="evenodd" d="M10.325 11.5838C10.5103 10.9061 10.1505 9.51299 10.1505 9.51299C10.1505 9.51299 9.88963 10.6479 9.48193 11.0674C9.13412 11.4252 8.708 11.6734 8.09686 11.7386C8.59652 11.4959 8.94014 10.9898 8.94014 10.4049C8.94014 9.58386 8.26303 8.91824 7.42778 8.91824C6.59253 8.91824 5.91539 9.58386 5.91539 10.4049C5.91539 10.6292 5.96592 10.8418 6.05636 11.0325C5.53394 10.6163 5.45179 9.94905 5.45179 9.94905C5.45179 9.94905 4.86843 12.371 6.47584 13.5103C8.08321 14.6496 11.232 13.6703 11.232 13.6703C11.232 13.6703 6.72589 16.8409 3.3868 13.3901C0.510456 10.4175 2.63607 6.504 2.63607 6.504C2.63607 6.504 2.54427 6.86704 2.54427 7.28848C2.54427 7.70992 2.77277 8.03057 2.77277 8.03057C2.77277 8.03057 3.45436 6.59388 3.98481 6.00961C4.48684 5.45666 5.11617 5.00819 5.65974 4.62082C6.07816 4.32264 6.44578 4.06067 6.66533 3.81513C7.87462 2.46295 7.13314 0 7.13314 0C7.13314 0 8.49633 1.20176 8.87689 2.75384C9.02197 3.34547 8.92863 4.01862 8.84519 4.62059C8.70972 5.59782 8.60024 6.38745 9.5789 6.33621C11.1604 6.25339 9.78612 3.81513 9.78612 3.81513C9.78612 3.81513 13.3736 5.70068 13.1056 8.99839C12.8375 12.2961 9.1843 13.0458 9.1843 13.0458C9.1843 13.0458 10.1396 12.2615 10.325 11.5838Z" fill="white"/>
</g>
</svg>
