<svg width="15" height="15" viewBox="0 0 15 15" fill="none" xmlns="http://www.w3.org/2000/svg">
<g id="Flying">
<path id="Vector" fill-rule="evenodd" clip-rule="evenodd" d="M5.23571 14C7.43307 14 9.31429 12.7788 10.0909 11.0476C10.1004 11.0264 6.97288 11.8603 7.0726 11.5656C7.11713 11.4339 9.03432 10.7336 10.4311 9.91664C11.2339 9.4471 11.6036 8.45314 11.6036 8.45314C11.6036 8.45314 10.2511 9.10983 9.56732 9.27641C8.18943 9.61216 6.97651 9.576 6.97651 9.54102C6.97651 9.46538 8.99053 9.0827 11.7898 7.37689C13.1065 6.57453 13.4641 5.19248 13.4641 5.19248C13.4641 5.19248 12.0165 6.05475 11.1414 6.33942C9.06614 7.01451 7.17233 7.21795 7.17233 7.1266C7.17233 6.93102 8.83894 6.47273 10.606 5.61652C11.5247 5.17136 12.3204 4.58975 13.2424 3.94296C14.7512 2.88473 15 1 15 1C15 1 13.512 1.95977 12.7858 2.2785C9.78931 3.59369 7.14344 4.28357 5.23571 4.43293C2.35594 4.6584 0 6.66767 0 9.27641C0 11.8852 2.3441 14 5.23571 14Z" fill="white"/>
</g>
</svg>
