<svg width="15" height="15" viewBox="0 0 15 15" fill="none" xmlns="http://www.w3.org/2000/svg">
<g id="Ghost" clip-path="url(#clip0_43_514)">
<path id="Vector" fill-rule="evenodd" clip-rule="evenodd" d="M10.8091 14.9481C9.45612 15.0173 7.90711 15.0173 7.3807 14.9481C3.27451 14.4079 0 11.4057 0 7.34766C0 3.28966 3.35786 0 7.5 0C11.6421 0 15 3.28966 15 7.34766C15 9.23499 14.2736 10.9561 13.0799 12.2574C12.7557 12.6108 13.2005 12.8586 13.6524 13.1105C14.0956 13.3575 14.5457 13.6083 14.2841 13.9662C13.9959 14.3605 12.4334 14.8649 10.8091 14.9481ZM6.44531 6.4292C6.44531 7.06324 5.92063 7.57726 5.27344 7.57726C4.62624 7.57726 4.10156 7.06324 4.10156 6.4292C4.10156 6.00395 4.33755 5.63273 4.6882 5.43431C4.70839 5.98717 5.16296 6.42917 5.72077 6.42917H6.44531V6.4292ZM10.0774 5.43431C10.0572 5.98717 9.60267 6.42917 9.04485 6.42917H8.32031V6.4292C8.32031 7.06324 8.84499 7.57726 9.49219 7.57726C10.1394 7.57726 10.6641 7.06324 10.6641 6.4292C10.6641 6.00395 10.4281 5.63273 10.0774 5.43431Z" fill="white"/>
</g>
<defs>
<clipPath id="clip0_43_514">
<rect width="15" height="15" fill="white"/>
</clipPath>
</defs>
</svg>
