<svg width="15" height="15" viewBox="0 0 15 15" fill="none" xmlns="http://www.w3.org/2000/svg">
<g id="Grass" clip-path="url(#clip0_42137_296)">
<path id="Vector" fill-rule="evenodd" clip-rule="evenodd" d="M2.78951 13.0851C2.73606 13.0348 2.6832 12.9835 2.63095 12.9313C-0.127308 10.1731 -0.127308 5.70103 2.63095 2.94279C5.38919 0.184525 14.1781 0 14.1781 0C14.1781 0 15.3777 10.1731 12.6195 12.9313C10.1698 15.381 6.36834 15.655 3.61621 13.7535L5.83378 11.0321L9.37876 10.2668L6.48502 9.97748L8.32402 8.10501L10.4174 7.64643L8.76208 7.15622L10.4174 4.1701L8.06287 6.81106L7.15365 5.52802L7.47372 7.64643L5.83378 9.49518L5.0736 7.15619V10.2668L2.78951 13.0851Z" fill="white"/>
</g>
<defs>
<clipPath id="clip0_42137_296">
<rect width="15" height="15" fill="white"/>
</clipPath>
</defs>
</svg>
