<svg width="15" height="15" viewBox="0 0 15 15" fill="none" xmlns="http://www.w3.org/2000/svg">
<g id="Ground">
<path id="Vector" fill-rule="evenodd" clip-rule="evenodd" d="M3.30364 12.8952C3.29957 12.8952 3.29673 12.8912 3.29808 12.8873L7.12763 2.06643C7.12848 2.06407 7.13071 2.0625 7.1332 2.0625H11.2214C11.2238 2.0625 11.2261 2.06409 11.2269 2.06645L14.9997 12.8874C15.001 12.8912 14.9981 12.8952 14.9941 12.8952H3.41872H3.30364ZM0.00589766 12.9375C0.00178454 12.9375 -0.00106305 12.9334 0.00037971 12.9296L2.85214 5.31611C2.853 5.31379 2.8552 5.31227 2.85766 5.31227H5.33551C5.33961 5.31227 5.34245 5.31634 5.34104 5.32018L2.58348 12.9336C2.58263 12.936 2.58042 12.9375 2.57794 12.9375H0.00589766Z" fill="white"/>
</g>
</svg>
