<svg width="15" height="15" viewBox="0 0 15 15" fill="none" xmlns="http://www.w3.org/2000/svg">
<g id="Ice" clip-path="url(#clip0_43_520)">
<g id="Vector">
<path d="M7.27661 2.79028L3.55115 0.94519L3.66383 5.06901L7.18136 6.81111L7.27661 2.79028Z" fill="white"/>
<path d="M11.4126 5.11923L11.3653 0.962158L7.74207 2.93472L7.78678 6.85979L11.4126 5.11923Z" fill="white"/>
<path d="M11.4105 9.56573L14.9999 7.51268L11.4087 5.6239L7.81909 7.50943L11.4105 9.56573Z" fill="white"/>
<path d="M7.18078 7.51268L3.59146 9.56573L0 7.50943L3.5896 5.6239L7.18078 7.51268Z" fill="white"/>
<path d="M11.4667 14.0173L7.74121 12.1722L7.83646 8.15137L11.354 9.89349L11.4667 14.0173Z" fill="white"/>
<path d="M3.63245 9.89779L3.6798 14.0549L7.30302 12.0823L7.25831 8.15723L3.63245 9.89779Z" fill="white"/>
</g>
</g>
<defs>
<clipPath id="clip0_43_520">
<rect width="15" height="15" fill="white"/>
</clipPath>
</defs>
</svg>
