<svg width="15" height="15" viewBox="0 0 15 15" fill="none" xmlns="http://www.w3.org/2000/svg">
<g id="Poison" clip-path="url(#clip0_42137_76)">
<path id="Vector" fill-rule="evenodd" clip-rule="evenodd" d="M12.5338 11.5268C14.0486 10.3157 15 8.5657 15 6.61963C15 2.9637 11.6421 0 7.5 0C3.35786 0 0 2.9637 0 6.61963C0 8.49545 0.883995 10.189 2.30435 11.3936C2.21827 11.6908 2.17105 12.0141 2.17105 12.3521C2.17105 13.8145 3.0547 15 4.14475 15C4.85303 15 5.47418 14.4995 5.82237 13.7477C6.17057 14.4995 6.79172 15 7.5 15C8.14564 15 8.71887 14.5841 9.07895 13.9411C9.43904 14.5841 10.0123 15 10.6579 15C11.7479 15 12.6316 13.8145 12.6316 12.3521C12.6316 12.064 12.5972 11.7865 12.5338 11.5268ZM11.8421 6.75091C11.8421 8.60698 9.85389 10.1116 7.40133 10.1116C4.94874 10.1116 2.96054 8.60698 2.96054 6.75091C2.96054 4.89483 4.94874 3.39018 7.40133 3.39018C9.85389 3.39018 11.8421 4.89483 11.8421 6.75091Z" fill="white"/>
</g>
<defs>
<clipPath id="clip0_42137_76">
<rect width="15" height="15" fill="white"/>
</clipPath>
</defs>
</svg>
