<svg width="15" height="15" viewBox="0 0 15 15" fill="none" xmlns="http://www.w3.org/2000/svg">
<g id="Psychic" clip-path="url(#clip0_43_531)">
<path id="Vector" fill-rule="evenodd" clip-rule="evenodd" d="M13.3661 12.4579C13.3661 12.4579 11.4745 13.975 7.71029 13.3472C4.85441 12.8709 3.33122 9.72272 3.33122 8.03053C3.33122 4.01847 6.30066 3.10545 8.30821 3.10545C10.3157 3.10545 11.6254 5.0627 11.6254 6.5781C11.6254 8.09349 10.5536 9.41897 8.8856 9.41897C7.21767 9.41897 6.72367 8.24799 6.72367 7.17142C6.72367 6.09488 7.59467 5.71559 8.38902 5.71559C9.18338 5.71559 9.45537 6.39377 9.45537 6.97663C9.45537 7.55953 9.00312 7.76826 8.62591 7.76826C8.2487 7.76826 8.21141 7.57796 8.06704 7.37796C7.92265 7.17798 8.25117 6.42099 7.71029 6.42099C7.16941 6.42099 7.06859 7.29123 7.06859 7.29123C7.06859 7.29123 7.26578 8.97109 8.8856 8.94211C10.5055 8.9131 11.2739 7.66082 11.0506 6.42099C10.8273 5.18113 9.62399 3.86365 7.51222 4.12987C5.40045 4.39609 4.53824 6.52984 4.91829 8.81008C5.29834 11.0904 8.03007 12.4116 10.1779 11.9362C12.3258 11.4609 14.465 9.90594 14.465 5.96353C14.465 2.02109 11.0506 -0.348676 6.97919 0.0418739C2.9078 0.432422 0.380471 3.9919 0.542242 8.26868C0.704014 12.5455 4.76218 14.8747 8.19377 14.9948C11.6254 15.1148 13.7291 13.1284 13.7291 13.1284C13.7291 13.1284 14.2022 12.7065 14.0167 12.377C13.8312 12.0476 13.3661 12.4579 13.3661 12.4579Z" fill="white"/>
</g>
<defs>
<clipPath id="clip0_43_531">
<rect width="15" height="15" fill="white"/>
</clipPath>
</defs>
</svg>
