<svg width="15" height="15" viewBox="0 0 15 15" fill="none" xmlns="http://www.w3.org/2000/svg">
<g id="Rock">
<path id="Vector" fill-rule="evenodd" clip-rule="evenodd" d="M11.5816 7.1841C11.5808 7.18293 11.5804 7.18147 11.5807 7.18004L12.5357 1.61149C12.5361 1.60893 12.5383 1.60706 12.5409 1.60706H12.8432C12.8455 1.60706 12.8475 1.60857 12.8482 1.61079L14.9998 8.42296C15.0004 8.42507 14.9997 8.4274 14.9979 8.42878L13.4116 9.66732C13.4092 9.66916 13.4058 9.66869 13.404 9.66627L11.5816 7.1841ZM0 10.8756C0 10.8779 0.00148509 10.88 0.0036806 10.8807L3.27374 11.9499C3.27532 11.9504 3.27708 11.9502 3.27845 11.9492L10.5878 6.90305C10.589 6.9022 10.5899 6.90089 10.5901 6.89942L11.3739 1.64005C11.3744 1.63682 11.3719 1.63392 11.3686 1.63392H4.89435C4.89274 1.63392 4.89125 1.63463 4.89022 1.63585L0.00122869 7.53368C0.000434452 7.53464 0 7.53584 0 7.5371V10.8756ZM4.63639 12.2223L8.20887 13.3926C8.21048 13.3931 8.21227 13.3929 8.21364 13.3919L12.4669 10.341C12.4693 10.3393 12.4699 10.336 12.4683 10.3336L10.8738 7.96097C10.8722 7.95848 10.8688 7.95784 10.8664 7.95954L4.63639 12.2223Z" fill="white"/>
</g>
</svg>
