<svg width="15" height="15" viewBox="0 0 15 15" fill="none" xmlns="http://www.w3.org/2000/svg">
<g id="Steel">
<path id="Vector" fill-rule="evenodd" clip-rule="evenodd" d="M0.00149739 7.5091C-0.000498182 7.5057 -0.000499184 7.50148 0.00149472 7.49806L3.7733 1.05374C3.77526 1.0504 3.77886 1.04834 3.78273 1.04834H11.2586C11.2625 1.04834 11.2661 1.05041 11.2681 1.05379L14.9985 7.49811C15.0005 7.50148 15.0005 7.50567 14.9985 7.50904L11.2681 13.9461C11.2661 13.9495 11.2625 13.9516 11.2586 13.9516H3.78273C3.77886 13.9516 3.77526 13.9495 3.7733 13.9462L0.00149739 7.5091ZM10.9751 7.49996C10.9751 9.41856 9.41978 10.9739 7.50118 10.9739C5.58259 10.9739 4.02724 9.41856 4.02724 7.49996C4.02724 5.58133 5.58259 4.02602 7.50118 4.02602C9.41978 4.02602 10.9751 5.58133 10.9751 7.49996Z" fill="white"/>
</g>
</svg>
