<svg width="15" height="15" viewBox="0 0 15 15" fill="none" xmlns="http://www.w3.org/2000/svg">
<g id="Water">
<path id="Vector" fill-rule="evenodd" clip-rule="evenodd" d="M12.3661 10.1523C12.3661 12.8296 10.1875 15 7.50005 15C4.81262 15 2.63403 12.8296 2.63403 10.1523C2.63403 7.54836 7.23684 0.396929 7.48927 0.00667442C7.49504 -0.00222486 7.50509 -0.00222478 7.51083 0.00667451C7.76327 0.396929 12.3661 7.54836 12.3661 10.1523ZM6.6889 13.4458C4.21965 12.9056 4.64219 10.1703 4.64219 10.1703C4.64219 10.1703 5.31646 11.8215 6.95273 12.3563C8.58898 12.8912 10.5664 12.1067 10.5664 12.1067C10.5664 12.1067 9.15815 13.9861 6.6889 13.4458Z" fill="white"/>
</g>
</svg>
