<svg width="20" height="20" viewBox="0 0 20 20" fill="none" xmlns="http://www.w3.org/2000/svg">
<g id="Search">
<path id="Vector" fill-rule="evenodd" clip-rule="evenodd" d="M12.1878 13.623C11.1298 14.3905 9.82856 14.843 8.4215 14.843C4.87499 14.843 2 11.968 2 8.4215C2 4.87499 4.87499 2 8.4215 2C11.968 2 14.843 4.87499 14.843 8.4215C14.843 9.8283 14.3907 11.1295 13.6233 12.1875C13.7242 12.2377 13.8185 12.3048 13.9026 12.389L17.6866 16.173C18.1045 16.5908 18.1045 17.2686 17.6866 17.6864C17.2686 18.1045 16.5911 18.1045 16.173 17.6864L12.3892 13.9026C12.3051 13.8185 12.2379 13.7239 12.1878 13.623ZM12.7025 8.4215C12.7025 10.7859 10.7859 12.7025 8.4215 12.7025C6.05708 12.7025 4.1405 10.7859 4.1405 8.4215C4.1405 6.05708 6.05708 4.1405 8.4215 4.1405C10.7859 4.1405 12.7025 6.05708 12.7025 8.4215Z" fill="#747476"/>
</g>
</svg>
